<svg width="24" height="24" viewBox="0 0 24 24" fill="none" xmlns="http://www.w3.org/2000/svg">
<mask id="mask0_56_124" style="mask-type:alpha" maskUnits="userSpaceOnUse" x="0" y="0" width="24" height="24">
<rect width="24" height="24" fill="#D9D9D9"/>
</mask>
<g mask="url(#mask0_56_124)">
<path d="M8.99999 17C8.44999 17 7.97916 16.8042 7.58749 16.4125C7.19582 16.0208 6.99999 15.55 6.99999 15V4C6.99999 3.45 7.19582 2.97917 7.58749 2.5875C7.97916 2.19583 8.44999 2 8.99999 2H14.875C14.7417 2.31667 14.6458 2.64167 14.5875 2.975C14.5292 3.30833 14.5 3.65 14.5 4H8.99999V14.2C9.74999 13.5 10.5958 12.9583 11.5375 12.575C12.4792 12.1917 13.4667 12 14.5 12C15.5167 12 16.5 12.1917 17.45 12.575C18.4 12.9583 19.25 13.5 20 14.2C20.0167 14.2167 20.0167 14.2167 20 14.2V9.5C20.35 9.5 20.6917 9.47083 21.025 9.4125C21.3583 9.35417 21.6833 9.25833 22 9.125V15C22 15.55 21.8042 16.0208 21.4125 16.4125C21.0208 16.8042 20.55 17 20 17H8.99999ZM5.59999 21.975C5.04999 22.0417 4.56249 21.9083 4.13749 21.575C3.71249 21.2417 3.45832 20.8 3.37499 20.25L1.99999 9.325C1.91666 8.775 2.04999 8.28333 2.39999 7.85C2.74999 7.41667 3.19999 7.16667 3.74999 7.1L4.99999 6.95V8.95L3.99999 9.075L5.34999 20L12.8 19H18.25C18.25 19.4333 18.075 19.7958 17.725 20.0875C17.375 20.3792 16.975 20.5583 16.525 20.625L5.59999 21.975ZM17.675 6.5L19.45 1.5H20.55L22.35 6.5H21.275L20.9 5.4H19.1L18.725 6.5H17.675ZM19.35 4.65H20.65L20 2.6L19.35 4.65ZM14.5 14C13.9167 14 13.3417 14.0833 12.775 14.25C12.2083 14.4167 11.6833 14.6667 11.2 15H17.8C17.3167 14.6667 16.7917 14.4167 16.225 14.25C15.6583 14.0833 15.0833 14 14.5 14ZM14.5 5.5C15.2667 5.5 15.9167 5.76667 16.45 6.3C16.9833 6.83333 17.25 7.48333 17.25 8.25C17.25 9.01667 16.9833 9.66667 16.45 10.2C15.9167 10.7333 15.2667 11 14.5 11C13.7333 11 13.0833 10.7333 12.55 10.2C12.0167 9.66667 11.75 9.01667 11.75 8.25C11.75 7.48333 12.0167 6.83333 12.55 6.3C13.0833 5.76667 13.7333 5.5 14.5 5.5ZM14.5 7.5C14.2833 7.5 14.1042 7.57083 13.9625 7.7125C13.8208 7.85417 13.75 8.03333 13.75 8.25C13.75 8.46667 13.8208 8.64583 13.9625 8.7875C14.1042 8.92917 14.2833 9 14.5 9C14.7167 9 14.8958 8.92917 15.0375 8.7875C15.1792 8.64583 15.25 8.46667 15.25 8.25C15.25 8.03333 15.1792 7.85417 15.0375 7.7125C14.8958 7.57083 14.7167 7.5 14.5 7.5Z" fill="#1C1B1F"/>
</g>
</svg>
