<svg width="40" height="40" viewBox="0 0 40 40" fill="none" xmlns="http://www.w3.org/2000/svg">
<mask id="mask0_123_797" style="mask-type:alpha" maskUnits="userSpaceOnUse" x="0" y="0" width="40" height="40">
<rect width="40" height="40" fill="#FFFFFF"/>
</mask>
<g mask="url(#mask0_123_797)">
<path d="M10.8334 33.3333C8.30564 33.3333 6.14592 32.4583 4.35425 30.7083C2.56258 28.9583 1.66675 26.8194 1.66675 24.2916C1.66675 22.125 2.31953 20.1944 3.62508 18.5C4.93064 16.8055 6.63897 15.7222 8.75008 15.25C9.44453 12.6944 10.8334 10.625 12.9167 9.04163C15.0001 7.45829 17.3612 6.66663 20.0001 6.66663C23.2501 6.66663 26.007 7.79857 28.2709 10.0625C30.5348 12.3263 31.6667 15.0833 31.6667 18.3333C33.5834 18.5555 35.1737 19.3819 36.4376 20.8125C37.7015 22.243 38.3334 23.9166 38.3334 25.8333C38.3334 27.9166 37.6042 29.6875 36.1459 31.1458C34.6876 32.6041 32.9167 33.3333 30.8334 33.3333H21.6667C20.7501 33.3333 19.9654 33.0069 19.3126 32.3541C18.6598 31.7013 18.3334 30.9166 18.3334 30V21.4166L15.6667 24L13.3334 21.6666L20.0001 15L26.6667 21.6666L24.3334 24L21.6667 21.4166V30H30.8334C32.0001 30 32.9862 29.5972 33.7917 28.7916C34.5973 27.9861 35.0001 27 35.0001 25.8333C35.0001 24.6666 34.5973 23.6805 33.7917 22.875C32.9862 22.0694 32.0001 21.6666 30.8334 21.6666H28.3334V18.3333C28.3334 16.0277 27.5209 14.0625 25.8959 12.4375C24.2709 10.8125 22.3056 9.99996 20.0001 9.99996C17.6945 9.99996 15.7292 10.8125 14.1042 12.4375C12.4792 14.0625 11.6667 16.0277 11.6667 18.3333H10.8334C9.2223 18.3333 7.8473 18.9027 6.70842 20.0416C5.56953 21.1805 5.00008 22.5555 5.00008 24.1666C5.00008 25.7777 5.56953 27.1527 6.70842 28.2916C7.8473 29.4305 9.2223 30 10.8334 30H15.0001V33.3333H10.8334Z" fill="#FFFFFF"/>
</g>
</svg>
